<?xml version="1.0" encoding="iso-8859-1"?>
<!-- Uploaded to: SVG Repo, www.svgrepo.com, Generator: SVG Repo Mixer Tools -->
<svg fill="#000000" height="800px" width="800px" version="1.1" id="Layer_1" xmlns="http://www.w3.org/2000/svg" xmlns:xlink="http://www.w3.org/1999/xlink" 
	 viewBox="0 0 512 512" xml:space="preserve">
<g>
	<g>
		<path d="M344.322,404.056c-6.585-6.585-227.74-227.745-236.388-236.394c-6.529-6.529-17.108-6.529-23.637,0
			c-6.529,6.523-6.529,17.112,0,23.637l16.186,16.187L0.954,489.705c-2.144,6.072-0.61,12.831,3.945,17.38
			c4.58,4.58,11.353,6.074,17.38,3.945l282.214-99.53l16.193,16.193c6.529,6.529,17.107,6.53,23.637,0
			C350.851,421.169,350.851,410.58,344.322,404.056z M138.479,434.6l-61.095-61.089l18.492-52.43l95.033,95.028L138.479,434.6z"/>
	</g>
</g>
<g>
	<g>
		<path d="M384.675,127.309c-6.529-6.529-17.108-6.529-23.637,0L256.686,231.656c-6.529,6.523-6.529,17.108,0,23.637
			c6.529,6.529,17.107,6.53,23.637,0l104.352-104.347C391.204,144.423,391.204,133.838,384.675,127.309z"/>
	</g>
</g>
<g>
	<g>
		<path d="M367.285,280.959h-58.417c-9.228,0-16.715,7.482-16.715,16.715c0,9.234,7.487,16.715,16.715,16.715h58.417
			c9.228,0,16.715-7.482,16.715-16.715C384,288.44,376.513,280.959,367.285,280.959z"/>
	</g>
</g>
<g>
	<g>
		<path d="M214.31,127.985c-9.228,0-16.715,7.481-16.715,16.715v58.423c0,9.234,7.487,16.715,16.715,16.715
			s16.715-7.482,16.715-16.715V144.7C231.025,135.467,223.538,127.985,214.31,127.985z"/>
	</g>
</g>
<g>
	<g>
		<path d="M497.296,262.22c-19.578-19.589-51.312-19.603-70.91-0.006c-19.592,19.579-19.621,51.323,0,70.921
			c19.579,19.59,51.317,19.604,70.91,0C516.887,313.556,516.917,281.817,497.296,262.22z M473.661,309.492c0,0.006,0,0.006,0,0.006
			c-9.982,9.982-28.533,3.47-28.533-11.823c0-9.164,7.406-16.71,16.715-16.71C476.781,280.964,484.096,299.057,473.661,309.492z"/>
	</g>
</g>
<g>
	<g>
		<path d="M249.765,14.675C230.221-4.869,198.4-4.869,178.834,14.686c-19.534,19.55-19.534,51.36,0.011,70.91
			c19.541,19.554,51.377,19.549,70.92,0.006v-0.006C269.36,66.025,269.38,34.29,249.765,14.675z M226.129,61.955v0.006
			c-6.519,6.513-17.108,6.523-23.648,0c-6.508-6.519-6.508-17.124,0-23.637c6.521-6.511,17.099-6.532,23.648-0.006
			C232.676,44.877,232.652,55.432,226.129,61.955z"/>
	</g>
</g>
<g>
	<g>
		<circle cx="427.057" cy="203.115" r="16.715"/>
	</g>
</g>
<g>
	<g>
		<circle cx="308.868" cy="84.926" r="16.715"/>
	</g>
</g>
<g>
	<g>
		<circle cx="427.057" cy="392.233" r="16.715"/>
	</g>
</g>
<g>
	<g>
		<circle cx="119.75" cy="84.926" r="16.715"/>
	</g>
</g>
<g>
	<g>
		<path d="M443.777,1.345c-9.228,0-16.715,7.482-16.715,16.715v16.715c0,9.234,7.487,16.715,16.715,16.715
			s16.715-7.482,16.715-16.715V18.061C460.492,8.827,453.005,1.345,443.777,1.345z"/>
	</g>
</g>
<g>
	<g>
		<path d="M443.777,84.922c-9.228,0-16.715,7.482-16.715,16.715v16.715c0,9.234,7.487,16.715,16.715,16.715
			s16.715-7.482,16.715-16.715v-16.715C460.492,92.404,453.005,84.922,443.777,84.922z"/>
	</g>
</g>
<g>
	<g>
		<path d="M410.346,51.492h-16.715c-9.228,0-16.715,7.482-16.715,16.715s7.487,16.715,16.715,16.715h16.715
			c9.228,0,16.715-7.482,16.715-16.715S419.574,51.492,410.346,51.492z"/>
	</g>
</g>
<g>
	<g>
		<path d="M493.923,51.492h-16.715c-9.228,0-16.715,7.482-16.715,16.715s7.487,16.715,16.715,16.715h16.715
			c9.228,0,16.715-7.482,16.715-16.715S503.151,51.492,493.923,51.492z"/>
	</g>
</g>
</svg>