<svg xmlns="http://www.w3.org/2000/svg" xmlns:xlink="http://www.w3.org/1999/xlink" width="428" height="926" viewBox="0 0 428 926">
  <defs>
    <clipPath id="clip-path">
      <rect id="Rectangle_10" data-name="Rectangle 10" width="255" height="255" fill="rgba(0,0,0,0)"/>
    </clipPath>
    <clipPath id="clip-path-2">
      <rect id="Rectangle_29" data-name="Rectangle 29" width="203.54" height="26.25" fill="#393e5b"/>
    </clipPath>
    <clipPath id="clip-iPhone_13_12_Pro_Max_25">
      <rect width="428" height="926"/>
    </clipPath>
  </defs>
  <g id="iPhone_13_12_Pro_Max_25" data-name="iPhone 13, 12 Pro Max – 25" clip-path="url(#clip-iPhone_13_12_Pro_Max_25)" transform="translate(0, 80.25)">
    <g id="Group_10" data-name="Group 10" transform="translate(87)">
      <g id="Group_8" data-name="Group 8" transform="translate(2)" clip-path="url(#clip-path)">
        <path id="Path_2" data-name="Path 2" d="M195.476,212.621c-1.949-6.3-.748-11.813,4.611-15.836,5.241-3.935,10.792-3.677,16.258-.138,2.965-8.784,8.842-14.215,18.3-14.632s15.749,4.484,19.5,12.937c1.3-.244,2.6-.573,3.931-.726a23.531,23.531,0,0,1,21.2,7.9,24.222,24.222,0,0,1-8.8,38.529A24.585,24.585,0,0,1,261,242.518q-34.5.015-69,0a15.185,15.185,0,0,1-7.061-28.791,14.606,14.606,0,0,1,9.976-1.141,4.314,4.314,0,0,0,.439.076c.043.005.092-.029.129-.042" transform="translate(-37.458 -81.79)" fill="#f7f6f4" stroke="#2e3352" stroke-width="2"/>
        <path id="Path_3" data-name="Path 3" d="M551.926,787.28c.093,2.745.188,5.335.266,7.925a29.416,29.416,0,0,1,.026,3.214,5.917,5.917,0,0,1-2.166,4.108,6.171,6.171,0,0,1-9.876-3.462,5.942,5.942,0,0,1,2.865-6.522c2.735-1.645,5.482-3.27,8.224-4.9.167-.1.341-.187.661-.361" transform="translate(-346.562 -596.394)" fill="#f7f6f4" stroke="#2e3352" stroke-width="2"/>
        <path id="Path_4" data-name="Path 4" d="M692.847,677.33c.044.769.1,1.459.12,2.15.087,2.718.174,5.437.243,8.156a5.954,5.954,0,0,1-4.933,6.141,6.156,6.156,0,0,1-6.865-3.825,5.945,5.945,0,0,1,2.549-7.391c2.756-1.659,5.525-3.295,8.29-4.938.164-.1.343-.171.6-.294" transform="translate(-466.389 -502.917)" fill="#ff6053" stroke="#2e3352" stroke-width="2"/>
        <path id="Path_5" data-name="Path 5" d="M572.055,616.372c.041.405.079.647.087.89.107,3.14.23,6.28.308,9.42a6.036,6.036,0,0,1-5.263,6.255,6.231,6.231,0,0,1-6.791-4.617,5.709,5.709,0,0,1,2.261-6.278c3.026-1.964,6.175-3.739,9.4-5.67" transform="translate(-363.701 -451.092)" fill="#1e4d93" stroke="#2e3352" stroke-width="2"/>
        <path id="Path_6" data-name="Path 6" d="M208.488,677.106c.1,3.788.307,7.429.249,11.067a5.438,5.438,0,0,1-3.72,5.075,5.8,5.8,0,0,1-6.3-1.063,6,6,0,0,1,.88-9.848c2.733-1.649,5.484-3.268,8.228-4.9.165-.1.344-.174.662-.333" transform="translate(-54.537 -502.727)" fill="#f7f6f4" stroke="#2e3352" stroke-width="2"/>
        <path id="Path_7" data-name="Path 7" d="M450.481,697.539c.049,1.109.1,2.12.135,3.131.078,2.418.176,4.837.209,7.256a5.975,5.975,0,0,1-4.479,5.979,6.3,6.3,0,0,1-7.076-3.2,6,6,0,0,1,1.588-7.434,4.759,4.759,0,0,1,.61-.43q4.14-2.473,8.286-4.936c.2-.122.426-.216.727-.366" transform="translate(-260.327 -520.098)" fill="#ede6cb" stroke="#2e3352" stroke-width="2"/>
        <path id="Path_8" data-name="Path 8" d="M349.567,616.586c.1,3.8.286,7.46.261,11.122a5.9,5.9,0,0,1-5.376,5.428,6.223,6.223,0,0,1-6.61-4.587,5.941,5.941,0,0,1,2.7-6.65c2.774-1.675,5.566-3.321,8.351-4.978.167-.1.347-.175.67-.336" transform="translate(-174.495 -451.274)" fill="#ff6053" stroke="#2e3352" stroke-width="2"/>
        <path id="Path_9" data-name="Path 9" d="M309.574,767.4c.1,3.772.27,7.388.27,11a5.852,5.852,0,0,1-5.019,5.438,6.088,6.088,0,0,1-6.763-3.85,5.935,5.935,0,0,1,2.566-7.326c2.734-1.648,5.484-3.272,8.228-4.9.185-.11.385-.2.718-.364" transform="translate(-140.495 -579.488)" fill="#393e5b" stroke="#2e3352" stroke-width="2"/>
      </g>
    </g>
    <g id="Group_46" data-name="Group 46" transform="translate(112.73 228.75)">
      <g id="Group_44" data-name="Group 44" transform="translate(0 0)" clip-path="url(#clip-path-2)">
        <path id="Path_99" data-name="Path 99" d="M104.23.206h9.455a10.417,10.417,0,0,1,6.932,2.1,7.506,7.506,0,0,1,2.489,6.069,7.924,7.924,0,0,1-1.5,4.924,7.767,7.767,0,0,1-4.094,2.758v.123l6.13,8.541v1.022H121.6l-7.114-9.195h-7.189v9.195H104.23Zm16.418,8.746A5.181,5.181,0,0,0,118.906,4.7a7.368,7.368,0,0,0-4.81-1.43h-6.8V14.509h7.132a6.906,6.906,0,0,0,4.541-1.389,5.1,5.1,0,0,0,1.68-4.167" transform="translate(2.255 0.005)" fill="#393e5b"/>
        <path id="Path_100" data-name="Path 100" d="M141.386,9.688a9.3,9.3,0,0,1,2.514,6.735,9.055,9.055,0,0,1-2.494,6.65,8.776,8.776,0,0,1-12.321,0,9.1,9.1,0,0,1-2.472-6.65,9.373,9.373,0,0,1,2.472-6.756,8.576,8.576,0,0,1,12.3.021m-10.3,11.68a5.528,5.528,0,0,0,8.295,0,7.139,7.139,0,0,0,1.7-4.988,7.3,7.3,0,0,0-1.7-5.03,5.448,5.448,0,0,0-8.295,0,7.307,7.307,0,0,0-1.7,5.03,7.144,7.144,0,0,0,1.7,4.988" transform="translate(2.74 0.153)" fill="#393e5b"/>
        <path id="Path_101" data-name="Path 101" d="M163.555,7.206V25.6h-1.619l-.49-3.245H160.9a5.651,5.651,0,0,1-.755,1.031,6.682,6.682,0,0,1-1.907,1.22,7.379,7.379,0,0,1-3.258.693A6.018,6.018,0,0,1,150,23.086a9.176,9.176,0,0,1-1.767-5.91V7.206h3.065v9.909a7.465,7.465,0,0,0,1.235,4.478,4.219,4.219,0,0,0,3.658,1.709,4.782,4.782,0,0,0,3.876-1.623,5.816,5.816,0,0,0,1.447-3.526V7.206Z" transform="translate(3.207 0.156)" fill="#393e5b"/>
        <path id="Path_102" data-name="Path 102" d="M104.229,2.7V.206h97.056V3.4l-24.519-.348v22.7H173.7V3.4Z" transform="translate(2.255 0.005)" fill="#393e5b"/>
        <path id="Path_103" data-name="Path 103" d="M197.554,11.912v2.128h-12.26v8.514h14.3v3.193H182.229V.206H199.6V3.4h-14.3v8.514Z" transform="translate(3.943 0.005)" fill="#393e5b"/>
        <path id="Path_104" data-name="Path 104" d="M0,.208H8.839a9.9,9.9,0,0,1,6.848,2.2,7.749,7.749,0,0,1,2.451,6.082A7.711,7.711,0,0,1,16.3,13.781a8.081,8.081,0,0,1-4.9,2.6v.085l6.994,9.05v.3h-.837l-7.2-9.262H.881v9.262H0Zm17.259,8.28A6.835,6.835,0,0,0,15,3,9.076,9.076,0,0,0,8.881,1.062h-8V15.7H9.468a8.2,8.2,0,0,0,5.592-1.921,6.664,6.664,0,0,0,2.2-5.293" transform="translate(0 0.005)" fill="#393e5b"/>
        <path id="Path_105" data-name="Path 105" d="M40.371,15.164v10.5h-.628l-.126-3.8h-.084a7.743,7.743,0,0,1-2.89,2.966,8.344,8.344,0,0,1-4.524,1.26,7.01,7.01,0,0,1-4.9-1.537,5.04,5.04,0,0,1-1.675-3.884,4.967,4.967,0,0,1,1.843-3.927q1.842-1.578,5.78-1.578a12.9,12.9,0,0,1,6.367,1.451V15.121q0-7-6.66-7a9.983,9.983,0,0,0-2.681.384,10.58,10.58,0,0,0-2.094.768l-.754.384-.377-.768A11.744,11.744,0,0,1,33.041,7.31a6.844,6.844,0,0,1,5.508,2.134,8.509,8.509,0,0,1,1.823,5.72m-12.5,8.792a6.4,6.4,0,0,0,4.378,1.323,7.39,7.39,0,0,0,5.006-1.835,5.766,5.766,0,0,0,2.282-3.414V17.511a12.282,12.282,0,0,0-6.283-1.536q-3.561,0-5.215,1.322a4.133,4.133,0,0,0-1.654,3.372,4.222,4.222,0,0,0,1.486,3.287" transform="translate(0.553 0.158)" fill="#393e5b"/>
        <path id="Path_106" data-name="Path 106" d="M51.634,1.665a1.063,1.063,0,0,1-1.382,0,.892.892,0,0,1-.273-.683.959.959,0,0,1,.273-.7,1,1,0,0,1,1.382,0,.966.966,0,0,1,.272.7.9.9,0,0,1-.272.683M50.525,7.9h.837V25.823h-.837Z" transform="translate(1.081 0)" fill="#393e5b"/>
        <path id="Path_107" data-name="Path 107" d="M62.033,25.665V7.738h.627l.209,3.756h.042l.042-.085a2.414,2.414,0,0,1,.189-.385c.1-.171.209-.355.335-.555a5.707,5.707,0,0,1,.5-.661q.314-.362.671-.7a5.064,5.064,0,0,1,.879-.662,9.1,9.1,0,0,1,1.111-.576A6.5,6.5,0,0,1,68,7.46a8.55,8.55,0,0,1,1.613-.149,6.467,6.467,0,0,1,5.34,2.369A9.463,9.463,0,0,1,76.861,15.8v9.86h-.839V15.848a8.808,8.808,0,0,0-1.674-5.592,5.764,5.764,0,0,0-4.817-2.133,6.245,6.245,0,0,0-3.749,1.131,6.643,6.643,0,0,0-2.22,2.518,6.9,6.9,0,0,0-.692,2.71V25.665Z" transform="translate(1.342 0.158)" fill="#393e5b"/>
        <path id="Path_108" data-name="Path 108" d="M95.611,11.647,102.062.208h3.394L96.2,16v9.818H93.265V16L84.009.208h3.435l6.533,11.439.755,1.621h.084Z" transform="translate(1.818 0.005)" fill="#393e5b"/>
      </g>
    </g>
  </g>
</svg>
