<?xml version="1.0" encoding="UTF-8"?>
<svg id="Layer_1" data-name="Layer 1" xmlns="http://www.w3.org/2000/svg" viewBox="0 0 28.94817 28.52988">
  <g>
    <path d="M.61576,10.21338c-.39502-.22363-.41602-.63428-.39307-.85889,.05225-.50732,.44092-1.16064,1.17188-1.39502l11.49414-3.30469L27.56644,.27783c.14844-.04053,.28223-.06152,.39258-.06152,.23438,0,.27246,.09131,.28418,.12109,.10254,.24902-.17383,.88525-.81445,1.51953l-15.51953,14.2334L.61576,10.21338Z"/>
    <path d="M27.95932,.43269c.04041,0,.06757,.00374,.08136,.00374l.00635-.00044c.02094,.1436-.15527,.65759-.7583,1.25587L11.87449,15.82851,.72886,10.02859c-.27942-.15799-.31244-.4416-.29095-.65172,.04645-.45372,.41272-1.01556,1.01019-1.20761l11.50494-3.30794L27.61918,.48798c.13257-.03616,.25018-.05528,.34015-.05528m0-.43269c-.12646,0-.27722,.02231-.45404,.07056L12.82938,4.44669,1.32853,7.75343c-1.28406,.41228-1.79938,2.09389-.81262,2.65181l11.42767,5.94699L27.58115,2.01074c.96289-.95459,1.24756-2.01074,.37817-2.01074h0Z"/>
  </g>
  <g>
    <path d="M18.87308,28.31787c-.22168,0-.52246-.06689-.69434-.38477l-5.97852-11.54541L26.83793,.7251c.32227-.31934,.70605-.49854,1.07617-.49854,.28418,0,.53027,.11133,.6748,.30566,.16113,.2168,.19141,.51514,.08691,.86279l-4.69922,14.43408-3.56348,11.31592c-.25586,.73193-.98438,1.17285-1.54004,1.17285Z"/>
    <path d="M27.91459,.43878h-.00006c.21643,0,.40021,.08015,.50415,.21991,.11786,.15848,.13696,.3983,.0567,.666l-4.70166,14.44258-3.5592,11.30157c-.22601,.649-.85938,1.0368-1.34119,1.0368-.23907,0-.40997-.09196-.50452-.26675l-5.91083-11.4158L26.98099,.88148c.28796-.28545,.61951-.44267,.93359-.4427m-.00024-.42424c-.3913,.00005-.83746,.17451-1.23199,.56567l-14.73877,15.77202,6.04852,11.68173c.18469,.3418,.51379,.49591,.88123,.49591,.6662,0,1.45819-.50705,1.74182-1.3215l3.56323-11.31366L28.87876,1.45601c.26416-.87946-.2619-1.44156-.96442-1.44147h0Z"/>
  </g>
</svg>